<svg width="16" height="16" viewBox="0 0 16 16" version="1.1" xmlns="http://www.w3.org/2000/svg" xmlns:xlink="http://www.w3.org/1999/xlink" xml:space="preserve" xmlns:serif="http://www.serif.com/">
    <path d="M0,4C-0,2.903 0.903,2 2,2L14,2C15.097,2 16,2.903 16,4L16,12C16,13.097 15.097,14 14,14L2,14C0.903,14 0,13.097 0,12L0,4ZM2,3C1.451,3 1,3.451 1,4L1,4.217L8,8.417L15,4.217L15,4C15,3.451 14.549,3 14,3L2,3ZM15,5.383L8,9.583L1,5.383C1,5.383 0.991,12.22 0.995,12.22C1.111,12.657 1.549,13 2,13L14,13C14.451,13 14.849,12.695 14.966,12.259L15,5.383Z" />
</svg>
