<?xml version="1.0" encoding="UTF-8" standalone="no"?>
<!DOCTYPE svg PUBLIC "-//W3C//DTD SVG 1.1//EN" "http://www.w3.org/Graphics/SVG/1.1/DTD/svg11.dtd">
<svg width="100%" height="100%" viewBox="0 0 700 29" version="1.1" xmlns="http://www.w3.org/2000/svg" xmlns:xlink="http://www.w3.org/1999/xlink" xml:space="preserve" xmlns:serif="http://www.serif.com/" style="fill-rule:evenodd;clip-rule:evenodd;stroke-linejoin:round;stroke-miterlimit:2;">
    <g transform="matrix(-1,1.22465e-16,-1.22465e-16,-1,700,63.9996)">
        <g>
            <path d="M0,36.957L0,64L700,64C700,64 677.648,60.04 671.842,59.312C667.086,58.716 661.147,57.984 657.947,57.754C655.18,57.554 646.712,55.322 645.069,55.575C643.313,55.846 641.87,54.981 640.175,55.123C638.598,55.254 636.763,56.4 635.292,56.431C633.563,56.468 632.359,57.422 630.853,57.336C626.997,57.115 626.301,56.091 624.869,55.265C623.112,54.251 619.025,53.654 615.762,53.174C614.43,52.978 613.434,53.912 611.502,53.951C609.139,53.998 608.775,52.243 605.352,52.298C602.488,52.345 601.007,54.533 599.205,54.385C595.783,54.104 595.956,54.738 592.763,55.194C590.403,55.531 588.446,55.6 586.022,54.822C584.572,54.356 583.139,54.145 581.715,54.106C580.473,54.072 571.785,54.234 570.552,54.407C569.242,54.591 567.984,53.947 566.67,54.237C563.118,55.021 559.527,55.954 555.765,55.739C553.823,55.627 551.608,55.288 549.204,54.799C546.494,54.248 548.296,54.21 545.223,53.387C543.749,52.993 541.261,54.582 539.744,54.162C537.887,53.648 533.694,52.377 531.359,52.058C527.63,51.548 526.03,52.811 522.585,52.383C521.174,52.207 517.414,50.413 516.269,50.19C511.712,49.305 513.479,52.38 510.099,52.744C507.399,53.034 495.8,54.549 493.191,54.88C491.22,55.129 488.044,51.159 486.116,51.424C483.136,51.834 482.047,50.702 479.147,51.128C469.599,52.532 467.087,43.974 457.716,45.012C452.82,45.555 449.981,49.126 444.917,49.393C438.286,49.743 440.188,51.399 432.977,51.037C431.456,50.961 427.951,55.326 426.434,55.172C425.139,55.04 416.355,57.327 415.063,57.153C410.703,56.568 401.194,52.744 396.852,52.029C393.595,51.493 395.028,50.592 391.775,50.244C390.4,50.097 385.197,51.101 383.872,51.245C379.942,51.671 374.936,55.007 370.704,54.434C366.103,53.81 360.716,51.554 352.256,50.417C351.159,50.27 346.065,53.469 345.005,53.357C340.262,52.856 338.787,51.254 336.077,52.014C329.518,53.853 323.326,53.472 317.025,53.068C315.814,52.99 314.832,52.834 311.8,52.969C310.382,53.032 309.204,53.852 308.011,53.576C307.066,53.358 305.767,52.755 304.414,52.857C302.292,53.017 301.687,54.212 300.038,54.736C299.417,54.933 297.819,52.341 297.185,52.534C294.618,53.318 291.351,51.879 288.541,52.509C286.899,52.876 285.369,53.963 283.023,53.812C281.628,53.722 281.245,53.12 279.814,52.814C278.107,52.45 273.249,55.373 271.556,55.112C270.126,54.892 268.849,57.887 267.065,57.633C264.701,57.297 263.109,56.349 261.372,55.773C258.911,54.957 258.907,57.937 256.833,56.688C256.129,56.263 254.717,56.878 253.854,56.708C252.843,56.509 251.415,57.078 250.232,57.117C248.563,57.171 245.877,58.004 243.985,58.236C240.821,58.624 237.443,59.02 234.176,58.619C226.228,57.645 225.022,55.774 219.37,54.881C218.581,54.756 213.583,55.023 212.363,54.853C210.672,54.618 207.633,51.956 205.809,51.758C204.235,51.588 202.91,50.961 201.798,50.92C194.915,50.664 198.77,52.803 191.982,53.163C190.633,53.235 189.063,53.272 187.374,53.283C186.34,53.29 185.65,53.093 184.55,53.082C183.461,53.072 181.963,53.248 180.854,53.225C179.04,53.187 177.23,53.134 175.522,53.075C171.32,52.931 168.047,51.858 166.551,51.773C161.895,51.506 161.457,52.066 158.843,50.787C157.203,49.984 152.309,50.015 150.861,49.198C149.131,48.222 150.117,48.419 147.922,47.886C146.728,47.596 145.201,48.764 143.602,48.723C142.284,48.688 138.103,51.391 136.553,51.573C134.598,51.803 133.144,51.188 131.123,51.172C128.241,51.148 125.407,45.161 122.593,44.877C119.853,44.6 120.11,45.728 117.345,45.769C116.444,45.782 114.061,45.265 113.307,45.201C110.109,44.928 109.752,42.361 107.726,42.875C106.471,43.193 102.728,42.955 101.357,43.466C99.634,44.109 97.737,44.02 95.969,44.787C94.893,45.253 91.619,43.46 90.481,43.396C89.401,43.335 88.519,42.598 87.011,43.139C85.55,43.663 84.276,43.197 83.137,43.355C82.218,43.483 80.878,43.456 79.285,43.317C77.041,43.121 73.736,46.142 70.958,45.625C69.277,45.312 67.421,44.624 65.82,44.265C62.526,43.528 59.501,45.072 57.889,44.489C56.656,44.043 55.816,45.169 53.198,45.494C51.385,45.72 48.493,41.731 46.485,42.082C44.104,42.498 43.656,40.294 41.592,40.578C39.918,40.809 35.96,39.566 34.877,39.511C33.182,39.426 31.754,39.935 29.89,39.521C27.707,39.035 25.434,37.002 23.127,36.224C20.468,35.328 19.572,37.359 16.914,36.32C16.419,36.126 12.712,36.348 12.157,36.213C11.664,36.093 10.564,35.664 10.045,35.566C9.03,35.375 7.892,36.402 6.856,36.314C5.886,36.232 5.018,37.116 4.196,36.903C3.602,36.75 2.706,37.949 2.177,37.791C1.71,37.651 0.585,37.101 0,36.957Z"/>
        </g>
    </g>
</svg>
