<?xml version="1.0" encoding="UTF-8" standalone="no"?>
<!DOCTYPE svg PUBLIC "-//W3C//DTD SVG 1.1//EN" "http://www.w3.org/Graphics/SVG/1.1/DTD/svg11.dtd">
<svg width="100%" height="100%" viewBox="0 0 200 200" version="1.1" xmlns="http://www.w3.org/2000/svg" xmlns:xlink="http://www.w3.org/1999/xlink" xml:space="preserve" xmlns:serif="http://www.serif.com/" style="fill-rule:evenodd;clip-rule:evenodd;stroke-linejoin:round;stroke-miterlimit:2;">
    <path d="M187.18,8.456L197.918,187.113L13.29,198.21L2.551,19.553L187.18,8.456ZM67.654,81.166C72,80.928 75.695,80.03 78.739,78.472C81.784,76.914 84.066,74.784 85.588,72.081C87.109,69.377 87.767,66.153 87.562,62.409C87.356,58.664 86.353,55.578 84.55,53.15C82.748,50.721 80.252,48.957 77.062,47.857C73.871,46.756 70.104,46.325 65.758,46.563L25.014,48.796L29.228,125.706L42.334,124.988L40.016,82.681L67.654,81.166ZM66.293,57.593C68.882,57.451 70.876,57.875 72.274,58.865C73.673,59.855 74.426,61.32 74.532,63.262C74.636,65.157 74.051,66.743 72.776,68.018C71.501,69.294 69.569,70.002 66.981,70.144L39.412,71.655L38.724,59.104L66.293,57.593ZM161.546,37.575C161.546,36.721 161.268,36.038 160.712,35.528C160.156,35.017 159.283,34.65 158.093,34.428L156.298,34.085C155.416,33.909 154.783,33.662 154.396,33.344C154.01,33.026 153.816,32.576 153.816,31.995C153.816,31.365 154.078,30.866 154.602,30.497C155.125,30.128 155.809,29.943 156.654,29.943C157.586,29.943 158.337,30.175 158.908,30.64C159.479,31.104 159.804,31.751 159.883,32.581L161.387,32.581C161.334,31.786 161.103,31.101 160.696,30.526C160.289,29.95 159.741,29.507 159.054,29.197C158.366,28.886 157.565,28.731 156.648,28.731C155.781,28.731 155.019,28.876 154.364,29.166C153.709,29.455 153.197,29.855 152.83,30.364C152.463,30.874 152.28,31.46 152.28,32.123C152.28,32.993 152.575,33.702 153.164,34.251C153.754,34.8 154.612,35.183 155.737,35.402L157.469,35.732C158.372,35.908 159.013,36.151 159.39,36.46C159.768,36.77 159.956,37.223 159.956,37.819C159.956,38.494 159.68,39.012 159.128,39.374C158.575,39.735 157.812,39.915 156.837,39.915C155.814,39.915 154.987,39.669 154.357,39.177C153.728,38.685 153.385,38.014 153.329,37.165L151.825,37.165C151.935,38.391 152.427,39.358 153.301,40.066C154.176,40.774 155.348,41.128 156.819,41.128C158.305,41.128 159.464,40.81 160.297,40.176C161.13,39.541 161.546,38.674 161.546,37.575ZM67.806,183.622C70.58,183.47 73.119,182.832 75.422,181.709C77.725,180.586 79.706,179.086 81.366,177.21C83.025,175.334 84.287,173.201 85.153,170.812C86.019,168.423 86.379,165.888 86.232,163.207C86.085,160.525 85.451,158.045 84.329,155.765C83.207,153.484 81.719,151.503 79.865,149.819C78.01,148.135 75.877,146.861 73.465,145.997C71.053,145.132 68.46,144.775 65.686,144.927C62.912,145.079 60.374,145.717 58.071,146.84C55.767,147.963 53.786,149.463 52.127,151.339C50.468,153.215 49.205,155.348 48.339,157.737C47.473,160.126 47.114,162.661 47.26,165.342C47.407,168.024 48.042,170.504 49.164,172.784C50.286,175.065 51.774,177.046 53.628,178.73C55.482,180.414 57.615,181.688 60.027,182.552C62.44,183.417 65.033,183.774 67.806,183.622ZM67.225,173.012C66.023,173.078 64.85,172.817 63.705,172.231C62.56,171.645 61.617,170.723 60.875,169.465C60.134,168.207 59.71,166.608 59.604,164.666C59.497,162.724 59.744,161.088 60.343,159.757C60.943,158.426 61.78,157.418 62.855,156.733C63.931,156.048 65.069,155.672 66.271,155.606C67.519,155.538 68.704,155.786 69.824,156.351C70.945,156.915 71.876,157.826 72.617,159.084C73.358,160.342 73.782,161.941 73.889,163.883C73.995,165.825 73.749,167.461 73.149,168.792C72.55,170.123 71.725,171.142 70.674,171.849C69.623,172.556 68.473,172.943 67.225,173.012ZM155.582,66.174C156.76,66.174 157.848,65.956 158.846,65.518C159.844,65.08 160.713,64.474 161.454,63.699C162.194,62.925 162.769,62.023 163.177,60.994C163.586,59.964 163.79,58.858 163.79,57.674C163.79,56.491 163.586,55.389 163.177,54.367C162.769,53.345 162.194,52.447 161.454,51.675C160.713,50.903 159.844,50.301 158.846,49.868C157.848,49.436 156.76,49.22 155.582,49.22C154.403,49.22 153.313,49.436 152.312,49.868C151.311,50.301 150.44,50.903 149.699,51.675C148.958,52.447 148.383,53.345 147.975,54.367C147.567,55.389 147.363,56.491 147.363,57.674C147.363,58.858 147.567,59.964 147.975,60.994C148.383,62.023 148.958,62.925 149.699,63.699C150.44,64.474 151.311,65.08 152.312,65.518C153.313,65.956 154.403,66.174 155.582,66.174ZM155.582,64.659C154.623,64.659 153.749,64.479 152.959,64.12C152.17,63.761 151.488,63.262 150.913,62.625C150.338,61.987 149.894,61.245 149.58,60.399C149.267,59.553 149.11,58.645 149.11,57.674C149.11,56.704 149.267,55.797 149.58,54.953C149.894,54.109 150.338,53.372 150.913,52.742C151.488,52.112 152.17,51.62 152.959,51.266C153.749,50.912 154.623,50.736 155.582,50.736C156.541,50.736 157.415,50.912 158.204,51.266C158.994,51.62 159.676,52.112 160.25,52.742C160.825,53.372 161.267,54.109 161.575,54.953C161.883,55.797 162.037,56.704 162.037,57.674C162.037,58.645 161.883,59.553 161.575,60.399C161.267,61.245 160.825,61.987 160.25,62.625C159.676,63.262 158.994,63.761 158.204,64.12C157.415,64.479 156.541,64.659 155.582,64.659ZM128.579,40.901L128.579,35.163L134.653,40.901L136.727,40.901L130.206,34.805L136.226,28.958L134.344,28.958L128.579,34.52L128.579,24.626L127.001,24.626L127.001,40.901L128.579,40.901ZM181.204,40.901L181.204,28.958L179.626,28.958L179.626,40.901L181.204,40.901ZM173.815,66.174C174.993,66.174 176.082,65.956 177.079,65.518C178.077,65.08 178.946,64.474 179.687,63.699C180.428,62.925 181.002,62.023 181.41,60.994C181.819,59.964 182.023,58.858 182.023,57.674C182.023,56.491 181.819,55.389 181.41,54.367C181.002,53.345 180.428,52.447 179.687,51.675C178.946,50.903 178.077,50.301 177.079,49.868C176.082,49.436 174.993,49.22 173.815,49.22C172.636,49.22 171.546,49.436 170.545,49.868C169.544,50.301 168.673,50.903 167.932,51.675C167.191,52.447 166.617,53.345 166.208,54.367C165.8,55.389 165.596,56.491 165.596,57.674C165.596,58.858 165.8,59.964 166.208,60.994C166.617,62.023 167.191,62.925 167.932,63.699C168.673,64.474 169.544,65.08 170.545,65.518C171.546,65.956 172.636,66.174 173.815,66.174ZM173.815,64.659C172.856,64.659 171.982,64.479 171.192,64.12C170.403,63.761 169.721,63.262 169.146,62.625C168.571,61.987 168.127,61.245 167.813,60.399C167.5,59.553 167.343,58.645 167.343,57.674C167.343,56.704 167.5,55.797 167.813,54.953C168.127,54.109 168.571,53.372 169.146,52.742C169.721,52.112 170.403,51.62 171.192,51.266C171.982,50.912 172.856,50.736 173.815,50.736C174.774,50.736 175.648,50.912 176.437,51.266C177.227,51.62 177.909,52.112 178.484,52.742C179.058,53.372 179.5,54.109 179.808,54.953C180.116,55.797 180.27,56.704 180.27,57.674C180.27,58.645 180.116,59.553 179.808,60.399C179.5,61.245 179.058,61.987 178.484,62.625C177.909,63.262 177.227,63.761 176.437,64.12C175.648,64.479 174.774,64.659 173.815,64.659ZM123.36,133.781C123.251,131.793 122.457,130.202 120.977,129.008C119.498,127.814 117.625,127.279 115.36,127.404C113.095,127.528 111.292,128.264 109.952,129.613C108.611,130.961 107.996,132.629 108.105,134.617C108.211,136.559 109.004,138.127 110.484,139.321C111.963,140.515 113.836,141.05 116.101,140.926C118.366,140.802 120.169,140.065 121.509,138.717C122.85,137.368 123.467,135.723 123.36,133.781ZM139.491,35.309L148.743,35.309C148.812,34.345 148.731,33.463 148.499,32.663C148.266,31.863 147.911,31.168 147.432,30.58C146.953,29.991 146.373,29.536 145.691,29.214C145.009,28.892 144.24,28.731 143.384,28.731C142.332,28.731 141.392,28.998 140.565,29.53C139.738,30.063 139.087,30.788 138.612,31.705C138.137,32.621 137.9,33.663 137.9,34.831C137.9,36.086 138.132,37.189 138.598,38.141C139.063,39.093 139.715,39.83 140.553,40.354C141.392,40.877 142.365,41.139 143.474,41.139C144.855,41.139 146.017,40.755 146.961,39.989C147.904,39.222 148.509,38.182 148.775,36.871L147.214,36.871C147.025,37.812 146.602,38.55 145.943,39.084C145.284,39.618 144.453,39.885 143.451,39.885C142.628,39.885 141.918,39.68 141.323,39.271C140.728,38.861 140.272,38.277 139.955,37.517C139.688,36.879 139.534,36.143 139.491,35.309ZM139.501,34.208C139.556,33.475 139.713,32.822 139.971,32.25C140.3,31.524 140.755,30.958 141.337,30.552C141.919,30.146 142.594,29.943 143.361,29.943C144.46,29.943 145.34,30.32 145.999,31.074C146.658,31.829 147.017,32.873 147.077,34.208L139.501,34.208ZM100.738,111.925C100.586,109.151 101.043,107.12 102.108,105.833C103.174,104.546 104.73,103.742 106.775,103.421C108.821,103.101 111.239,103.003 114.028,103.128L113.351,90.785C110.392,90.947 107.594,91.703 104.955,93.053C102.317,94.404 100.34,96.204 99.026,98.456L98.665,91.868L87.778,92.465L89.419,122.408L101.277,121.758L100.738,111.925ZM181.692,26.192C181.692,25.844 181.573,25.56 181.336,25.34C181.098,25.12 180.788,25.01 180.406,25.01C180.034,25.01 179.727,25.12 179.484,25.34C179.242,25.56 179.12,25.844 179.12,26.192C179.12,26.536 179.242,26.823 179.484,27.054C179.727,27.285 180.034,27.401 180.406,27.401C180.788,27.401 181.098,27.285 181.336,27.054C181.573,26.823 181.692,26.536 181.692,26.192ZM124.33,180.666L122.24,142.537L110.382,143.186L112.472,181.316L124.33,180.666ZM66.201,124.376C68.975,124.224 71.513,123.586 73.817,122.463C76.12,121.34 78.101,119.84 79.76,117.964C81.42,116.088 82.682,113.956 83.548,111.567C84.414,109.178 84.774,106.642 84.627,103.961C84.48,101.28 83.845,98.799 82.724,96.519C81.602,94.239 80.114,92.257 78.259,90.573C76.405,88.89 74.272,87.616 71.86,86.751C69.448,85.886 66.855,85.53 64.081,85.682C61.307,85.834 58.769,86.471 56.465,87.594C54.162,88.718 52.181,90.217 50.522,92.093C48.863,93.969 47.6,96.102 46.734,98.491C45.868,100.88 45.508,103.415 45.655,106.097C45.802,108.778 46.437,111.259 47.559,113.539C48.68,115.819 50.168,117.801 52.023,119.484C53.877,121.168 56.01,122.442 58.422,123.307C60.834,124.171 63.427,124.528 66.201,124.376ZM65.62,113.766C64.418,113.832 63.244,113.572 62.099,112.985C60.954,112.399 60.011,111.477 59.27,110.219C58.529,108.961 58.105,107.362 57.999,105.42C57.892,103.479 58.139,101.842 58.738,100.511C59.337,99.18 60.175,98.172 61.25,97.487C62.325,96.802 63.464,96.427 64.666,96.361C65.914,96.292 67.099,96.54 68.219,97.105C69.34,97.67 70.271,98.581 71.012,99.838C71.753,101.096 72.177,102.696 72.284,104.637C72.39,106.579 72.143,108.215 71.544,109.547C70.945,110.878 70.119,111.897 69.069,112.603C68.018,113.31 66.868,113.698 65.62,113.766ZM167.128,33.949C167.128,33.196 167.279,32.531 167.579,31.956C167.88,31.381 168.284,30.93 168.793,30.601C169.302,30.273 169.866,30.108 170.485,30.108C171.466,30.108 172.21,30.419 172.719,31.039C173.228,31.66 173.483,32.545 173.483,33.696L173.483,40.901L175.061,40.901L175.061,33.159C175.061,31.745 174.69,30.654 173.949,29.885C173.209,29.116 172.217,28.731 170.975,28.731C170.115,28.731 169.351,28.957 168.685,29.408C168.018,29.859 167.5,30.443 167.128,31.161L167.128,24.626L165.551,24.626L165.551,40.901L167.128,40.901L167.128,33.949ZM109.939,49.56L108.233,49.56L108.233,60.582C108.233,61.505 108.073,62.269 107.755,62.872C107.437,63.475 106.998,63.924 106.438,64.218C105.879,64.512 105.225,64.659 104.479,64.659C103.777,64.659 103.152,64.517 102.604,64.235C102.055,63.952 101.622,63.539 101.303,62.995C100.985,62.451 100.804,61.792 100.759,61.018L99.052,61.018C99.108,62.07 99.365,62.982 99.822,63.753C100.28,64.525 100.905,65.121 101.699,65.542C102.493,65.964 103.42,66.174 104.479,66.174C105.587,66.174 106.549,65.955 107.365,65.517C108.181,65.079 108.815,64.432 109.264,63.577C109.714,62.722 109.939,61.679 109.939,60.448L109.939,49.56ZM37.996,185.397L36.068,150.203L45.221,149.702L44.655,139.369L35.501,139.871L35.444,138.831C35.396,137.952 35.709,137.321 36.384,136.936C37.058,136.551 37.904,136.331 38.921,136.275C39.568,136.24 40.242,136.261 40.942,136.339C41.641,136.416 42.229,136.558 42.704,136.764L42.191,127.402C41.292,127.08 40.27,126.835 39.125,126.666C37.98,126.497 36.737,126.449 35.396,126.523C31.235,126.751 28.172,127.962 26.205,130.156C24.239,132.35 23.361,135.366 23.571,139.203L23.644,140.521L16.709,140.901L17.275,151.233L24.21,150.853L26.138,186.046L37.996,185.397ZM106.218,40.901L106.218,26.137L111.674,26.137L111.674,24.626L99.078,24.626L99.078,26.137L104.534,26.137L104.534,40.901L106.218,40.901ZM149.217,179.161C151.99,179.009 154.529,178.371 156.832,177.248C159.135,176.125 161.117,174.625 162.776,172.749C164.435,170.873 165.697,168.74 166.563,166.351C167.429,163.962 167.789,161.427 167.642,158.746C167.495,156.064 166.861,153.584 165.739,151.304C164.617,149.023 163.129,147.042 161.275,145.358C159.421,143.674 157.287,142.4 154.875,141.536C152.463,140.671 149.87,140.314 147.096,140.466C144.322,140.618 141.784,141.256 139.481,142.379C137.177,143.502 135.196,145.002 133.537,146.878C131.878,148.754 130.615,150.887 129.749,153.276C128.883,155.665 128.524,158.2 128.671,160.881C128.818,163.563 129.452,166.043 130.574,168.323C131.696,170.604 133.184,172.585 135.038,174.269C136.892,175.953 139.025,177.227 141.438,178.091C143.85,178.956 146.443,179.313 149.217,179.161ZM148.635,168.551C147.433,168.617 146.26,168.356 145.115,167.77C143.97,167.184 143.027,166.262 142.285,165.004C141.544,163.746 141.12,162.147 141.014,160.205C140.908,158.263 141.154,156.627 141.753,155.296C142.353,153.965 143.19,152.956 144.265,152.272C145.341,151.587 146.479,151.211 147.681,151.145C148.93,151.077 150.114,151.325 151.235,151.89C152.355,152.454 153.286,153.365 154.027,154.623C154.769,155.881 155.192,157.48 155.299,159.422C155.405,161.364 155.159,163 154.559,164.331C153.96,165.662 153.135,166.681 152.084,167.388C151.033,168.095 149.883,168.482 148.635,168.551ZM142.827,65.834L144.621,65.834L144.621,49.56L143.031,49.56L143.031,63.26L133.62,49.56L131.736,49.56L131.736,65.834L133.326,65.834L133.326,51.973L142.827,65.834ZM146.811,114.997C146.187,115.449 145.43,115.815 144.541,116.095C143.653,116.376 142.723,116.543 141.752,116.596C140.134,116.685 138.908,116.323 138.076,115.511C137.243,114.699 136.777,113.391 136.678,111.588L136.145,101.859L146.339,101.301L145.773,90.968L135.579,91.527L134.889,78.932L123.031,79.582L123.721,92.177L116.787,92.557L117.353,102.889L124.287,102.509L124.972,115.012C125.127,117.832 125.792,120.229 126.966,122.205C128.141,124.181 129.752,125.646 131.798,126.601C133.844,127.555 136.254,127.956 139.028,127.804C140.692,127.713 142.186,127.48 143.51,127.106C144.834,126.732 146.123,126.14 147.377,125.33L146.811,114.997ZM120.786,66.174C121.965,66.174 123.053,65.956 124.051,65.518C125.049,65.08 125.918,64.474 126.658,63.699C127.399,62.925 127.974,62.023 128.382,60.994C128.79,59.964 128.995,58.858 128.995,57.674C128.995,56.491 128.79,55.389 128.382,54.367C127.974,53.345 127.399,52.447 126.658,51.675C125.918,50.903 125.049,50.301 124.051,49.868C123.053,49.436 121.965,49.22 120.786,49.22C119.608,49.22 118.518,49.436 117.516,49.868C116.515,50.301 115.644,50.903 114.903,51.675C114.163,52.447 113.588,53.345 113.18,54.367C112.772,55.389 112.568,56.491 112.568,57.674C112.568,58.858 112.772,59.964 113.18,60.994C113.588,62.023 114.163,62.925 114.903,63.699C115.644,64.474 116.515,65.08 117.516,65.518C118.518,65.956 119.608,66.174 120.786,66.174ZM120.786,64.659C119.827,64.659 118.953,64.479 118.164,64.12C117.374,63.761 116.692,63.262 116.118,62.625C115.543,61.987 115.099,61.245 114.785,60.399C114.471,59.553 114.315,58.645 114.315,57.674C114.315,56.704 114.471,55.797 114.785,54.953C115.099,54.109 115.543,53.372 116.118,52.742C116.692,52.112 117.374,51.62 118.164,51.266C118.953,50.912 119.827,50.736 120.786,50.736C121.745,50.736 122.62,50.912 123.409,51.266C124.198,51.62 124.88,52.112 125.455,52.742C126.03,53.372 126.471,54.109 126.779,54.953C127.087,55.797 127.241,56.704 127.241,57.674C127.241,58.645 127.087,59.553 126.779,60.399C126.471,61.245 126.03,61.987 125.455,62.625C124.88,63.262 124.198,63.761 123.409,64.12C122.62,64.479 121.745,64.659 120.786,64.659ZM121.069,40.901L122.436,40.901L122.436,33.124C122.436,31.739 122.049,30.661 121.274,29.889C120.499,29.117 119.413,28.731 118.015,28.731C117.107,28.731 116.309,28.915 115.62,29.284C114.931,29.653 114.392,30.166 114.002,30.824C113.611,31.482 113.407,32.259 113.387,33.155L114.831,33.155C114.851,32.179 115.147,31.407 115.72,30.841C116.292,30.274 117.061,29.991 118.026,29.991C118.939,29.991 119.649,30.271 120.156,30.832C120.663,31.393 120.917,32.173 120.917,33.172L120.917,34.18C120.336,34.124 119.872,34.087 119.525,34.07C119.178,34.053 118.821,34.044 118.455,34.044C116.65,34.044 115.288,34.344 114.368,34.943C113.448,35.542 112.988,36.427 112.988,37.599C112.988,38.669 113.357,39.525 114.096,40.166C114.835,40.807 115.823,41.128 117.059,41.128C117.99,41.128 118.805,40.914 119.504,40.486C120.203,40.058 120.725,39.474 121.069,38.733L121.069,40.901ZM114.507,37.553C114.507,36.716 114.84,36.097 115.506,35.695C116.172,35.293 117.183,35.092 118.537,35.092C118.861,35.092 119.211,35.101 119.587,35.118C119.963,35.135 120.406,35.168 120.917,35.218L120.917,36.273C120.917,37.387 120.59,38.28 119.937,38.953C119.283,39.626 118.403,39.962 117.295,39.962C116.457,39.962 115.783,39.74 115.273,39.295C114.762,38.851 114.507,38.27 114.507,37.553ZM104.705,181.741L101.572,124.555L89.575,125.213L92.709,182.398L104.705,181.741Z"/>
</svg>
